<?xml version="1.0" encoding="utf-8"?>
<!-- Generator: Adobe Illustrator 21.0.2, SVG Export Plug-In . SVG Version: 6.00 Build 0)  -->
<svg version="1.1" id="Layer_1" xmlns="http://www.w3.org/2000/svg" xmlns:xlink="http://www.w3.org/1999/xlink" x="0px" y="0px"
	 viewBox="0 0 26 113" style="enable-background:new 0 0 26 113;" xml:space="preserve">
<style type="text/css">
	.st0{fill:#FFFFFF;}
</style>
<title>HSE ART AND DES IGN</title>
<desc>Created with Sketch.</desc>
<g>
	<path class="st0" d="M2.2,10.7H1V0.5h1.3v4.3h3.9V0.5h1.3v10.2H6.2V5.9H2.2V10.7z"/>
	<path class="st0" d="M9.9,8.9c0.7,0.6,1.6,0.9,2.6,0.9c0.5,0,1-0.2,1.3-0.5C14,9,14.2,8.5,14.2,8S14,7.1,13.7,6.8
		c-0.3-0.3-0.7-0.5-1.1-0.7l-0.4-0.2c-0.8-0.3-1.3-0.6-1.6-0.8S10,4.8,9.9,4.6C9.6,4.2,9.4,3.6,9.4,3c0-0.9,0.3-1.5,0.9-2
		s1.3-0.7,2.2-0.7c1.1,0,2,0.3,2.7,0.8l-0.5,1c-0.6-0.5-1.3-0.7-2.1-0.7c-0.5,0-1,0.1-1.3,0.4s-0.5,0.7-0.5,1.2s0.3,1,0.9,1.3
		c0.2,0.1,0.6,0.3,1,0.4s0.9,0.4,1.3,0.6c0.4,0.2,0.8,0.5,1.1,0.9s0.5,0.9,0.5,1.5c0,1-0.3,1.7-0.9,2.2c-0.6,0.5-1.3,0.8-2.3,0.8
		c-1.2,0-2.2-0.3-3.1-0.8L9.9,8.9z"/>
	<path class="st0" d="M19.6,6v3.7h4.8l-0.1,1h-6V0.5h5.9l-0.1,1h-4.5v3.4h4.3V6H19.6z"/>
	<path class="st0" d="M4.9,17.3l3,10.2H6.6l-1-3.3H2.8l-1,3.3H0.5l3-10.2H4.9z M3,23.2h2.3l-1.1-4.4L3,23.2z"/>
	<path class="st0" d="M13.9,17.5c0.6,0.1,1.1,0.4,1.5,0.8s0.6,1,0.6,1.7s-0.2,1.3-0.6,1.8c-0.4,0.4-1,0.7-1.6,0.9
		c0.5,0.7,1,1.4,1.4,2.2s0.8,1.6,1.3,2.7H15c0,0-0.1-0.2-0.2-0.5c-0.1-0.3-0.2-0.5-0.2-0.5s-0.1-0.2-0.2-0.5
		c-0.1-0.2-0.2-0.4-0.2-0.5c0-0.1-0.1-0.2-0.2-0.5s-0.2-0.4-0.3-0.5s-0.2-0.3-0.4-0.6s-0.4-0.6-0.7-1l-1,0H11v4.5H9.7V17.3h2
		C12.5,17.3,13.2,17.4,13.9,17.5z M14.1,21.4c0.4-0.3,0.6-0.8,0.6-1.4c0-0.3-0.1-0.6-0.2-0.8c-0.3-0.6-1.1-0.9-2.2-0.9H11v3.6h1.3
		C13.1,21.9,13.6,21.7,14.1,21.4z"/>
	<path class="st0" d="M24.5,17.3v1h-2.9v9.2h-1.3v-9.2h-2.9v-1H24.5z"/>
	<path class="st0" d="M4.9,34.1l3,10.2H6.6l-1-3.3H2.8l-1,3.3H0.5l3-10.2H4.9z M3,40h2.3l-1.1-4.4L3,40z"/>
	<path class="st0" d="M15.9,44.3h-1.5l-3.7-8.2v8.2H9.5V34.1H11l3.7,8.2v-8.2h1.1V44.3z"/>
	<path class="st0" d="M18,34.1h1.7c1.6,0,2.8,0.4,3.7,1.3c0.8,0.9,1.2,2.1,1.2,3.8s-0.4,2.9-1.3,3.8s-2.1,1.3-3.8,1.3H18V34.1z
		 M19.5,43.3c1.6,0,2.7-0.5,3.3-1.5c0.3-0.6,0.5-1.5,0.5-2.6c0-1.3-0.3-2.3-0.8-3c-0.5-0.7-1.5-1-3-1h-0.2v8.2H19.5z"/>
	<path class="st0" d="M1.1,50.9h1.7c1.6,0,2.8,0.4,3.7,1.3s1.2,2.1,1.2,3.8c0,1.6-0.4,2.9-1.3,3.8s-2.1,1.3-3.8,1.3H1.1V50.9z
		 M2.5,60.1c1.6,0,2.7-0.5,3.3-1.5c0.3-0.6,0.5-1.5,0.5-2.6c0-1.3-0.3-2.3-0.8-3s-1.5-1-3-1H2.3v8.2H2.5z"/>
	<path class="st0" d="M11.2,56.4v3.7H16l-0.1,1h-6V50.9h5.9l-0.1,1h-4.5v3.4h4.3v1.1H11.2z"/>
	<path class="st0" d="M18.3,59.3c0.7,0.6,1.6,0.9,2.6,0.9c0.5,0,1-0.2,1.3-0.5c0.3-0.3,0.4-0.8,0.4-1.3s-0.2-0.9-0.5-1.2
		c-0.3-0.3-0.7-0.5-1.1-0.7l-0.4-0.2c-0.8-0.3-1.3-0.6-1.6-0.8c-0.3-0.2-0.5-0.4-0.7-0.6c-0.3-0.4-0.5-0.9-0.5-1.6
		c0-0.9,0.3-1.5,0.9-2s1.3-0.7,2.2-0.7c1.1,0,2,0.3,2.7,0.8l-0.5,1c-0.6-0.5-1.3-0.7-2.1-0.7c-0.5,0-1,0.1-1.3,0.4
		c-0.3,0.3-0.5,0.7-0.5,1.2s0.3,1,0.9,1.3c0.2,0.1,0.6,0.3,1,0.4c0.4,0.2,0.9,0.4,1.3,0.6c0.4,0.2,0.8,0.5,1.1,0.9s0.5,0.9,0.5,1.5
		c0,1-0.3,1.7-0.9,2.2c-0.6,0.5-1.3,0.8-2.3,0.8c-1.2,0-2.2-0.3-3.1-0.8L18.3,59.3z"/>
	<path class="st0" d="M1.3,68.7v-1h5.7v1H4.8v8.2h2.3v1H1.3v-1h2.2v-8.2H1.3z"/>
	<path class="st0" d="M15.6,69.3c-0.5-0.5-1.3-0.7-2.2-0.7c-0.5,0-0.9,0.1-1.3,0.4s-0.7,0.6-0.9,1c-0.5,0.8-0.7,1.8-0.7,2.9
		c0,1.1,0.2,2.1,0.7,2.9c0.2,0.4,0.5,0.7,0.9,0.9s0.7,0.3,1.2,0.3s0.8-0.1,1-0.2c0.3-0.1,0.6-0.2,0.9-0.4v-2.8h-2.3v-1h3.4V77
		c-0.5,0.3-1,0.6-1.5,0.8s-1,0.3-1.7,0.3s-1.2-0.1-1.7-0.4c-0.5-0.3-0.9-0.7-1.2-1.2c-0.6-1-1-2.2-1-3.7c0-0.8,0.1-1.5,0.3-2.1
		s0.5-1.2,0.9-1.7c0.4-0.4,0.8-0.8,1.3-1s1.1-0.4,1.7-0.4c1.1,0,2,0.3,2.7,0.9L15.6,69.3z"/>
	<path class="st0" d="M24.2,77.9h-1.5L19,69.7v8.2h-1.2V67.7h1.5l3.7,8.2v-8.2h1.1V77.9z"/>
	<path class="st0" d="M1.4,92.9c0.7,0.6,1.6,0.9,2.6,0.9c0.5,0,1-0.2,1.3-0.5C5.6,93,5.8,92.5,5.8,92s-0.2-0.9-0.5-1.2
		c-0.3-0.3-0.7-0.5-1.1-0.7l-0.4-0.2c-0.8-0.3-1.3-0.6-1.6-0.8s-0.5-0.4-0.7-0.6C1.2,88.2,1,87.6,1,87c0-0.9,0.3-1.5,0.9-2
		c0.6-0.5,1.3-0.7,2.2-0.7c1.1,0,2,0.3,2.7,0.8l-0.5,1c-0.6-0.5-1.3-0.7-2.1-0.7c-0.5,0-1,0.1-1.3,0.4c-0.3,0.3-0.5,0.7-0.5,1.2
		c0,0.5,0.3,1,0.9,1.3c0.2,0.1,0.6,0.3,1,0.4s0.9,0.4,1.3,0.6s0.8,0.5,1.1,0.9s0.5,0.9,0.5,1.5c0,1-0.3,1.7-0.9,2.2
		C5.8,94.6,5,94.9,4,94.9c-1.2,0-2.2-0.3-3.1-0.8L1.4,92.9z"/>
	<path class="st0" d="M16.1,85.2l-0.5,0.9c-0.6-0.5-1.3-0.7-2-0.7c-0.7,0-1.3,0.2-1.8,0.6c-0.9,0.8-1.4,2-1.4,3.6
		c0,0.8,0.1,1.5,0.3,2.1s0.6,1.1,1,1.5c0.5,0.4,1,0.6,1.6,0.6c0.8,0,1.5-0.2,2.1-0.7l0.4,1c-0.6,0.6-1.5,0.8-2.7,0.8
		c-0.8,0-1.6-0.2-2.2-0.7c-0.6-0.5-1.1-1.1-1.5-1.9c-0.3-0.8-0.5-1.7-0.5-2.6c0-0.9,0.1-1.7,0.3-2.3c0.2-0.7,0.5-1.2,0.9-1.7
		s0.8-0.8,1.3-1c0.5-0.2,1.1-0.4,1.6-0.4C14.6,84.3,15.5,84.6,16.1,85.2z"/>
	<path class="st0" d="M19,94.7h-1.3V84.5H19v4.3H23v-4.3h1.3v10.2H23v-4.8H19V94.7z"/>
	<path class="st0" d="M5.7,111.2c-0.4,0.3-0.9,0.4-1.5,0.4s-1.1-0.1-1.5-0.4c-0.4-0.3-0.8-0.7-1.1-1.2c-0.5-1-0.8-2.2-0.8-3.7
		c0-1.8,0.4-3.2,1.1-4.1c0.3-0.3,0.6-0.6,1-0.8s0.8-0.3,1.3-0.3s0.9,0.1,1.3,0.3c0.7,0.4,1.2,1,1.5,1.9c0.3,0.9,0.5,1.9,0.5,3.1
		c0,1.5-0.3,2.7-0.8,3.7C6.5,110.6,6.1,111,5.7,111.2z M5.3,102.8c-0.3-0.4-0.7-0.6-1.1-0.6s-0.8,0.2-1.1,0.6
		c-0.3,0.4-0.5,0.9-0.7,1.5s-0.2,1.3-0.2,2.1s0.1,1.5,0.2,2.1s0.4,1.1,0.7,1.5s0.7,0.6,1.1,0.6s0.8-0.2,1.1-0.6s0.5-0.9,0.7-1.5
		s0.2-1.3,0.2-2.1s-0.1-1.5-0.2-2.1S5.6,103.1,5.3,102.8z"/>
	<path class="st0" d="M14.1,111.2c-0.4,0.3-0.9,0.4-1.5,0.4s-1.1-0.1-1.5-0.4c-0.4-0.3-0.8-0.7-1.1-1.2c-0.5-1-0.8-2.2-0.8-3.7
		c0-1.8,0.4-3.2,1.1-4.1c0.3-0.3,0.6-0.6,1-0.8s0.8-0.3,1.3-0.3s0.9,0.1,1.3,0.3c0.7,0.4,1.2,1,1.5,1.9c0.3,0.9,0.5,1.9,0.5,3.1
		c0,1.5-0.3,2.7-0.8,3.7C14.9,110.6,14.5,111,14.1,111.2z M13.7,102.8c-0.3-0.4-0.7-0.6-1.1-0.6s-0.8,0.2-1.1,0.6
		c-0.3,0.4-0.5,0.9-0.7,1.5s-0.2,1.3-0.2,2.1s0.1,1.5,0.2,2.1s0.4,1.1,0.7,1.5s0.7,0.6,1.1,0.6s0.8-0.2,1.1-0.6
		c0.3-0.4,0.5-0.9,0.7-1.5c0.1-0.6,0.2-1.3,0.2-2.1s-0.1-1.5-0.2-2.1C14.2,103.6,14,103.1,13.7,102.8z"/>
	<path class="st0" d="M20.2,110.5h3.9l-0.1,1h-5.1v-10.2h1.3V110.5z"/>
</g>
</svg>
