<?xml version="1.0" encoding="UTF-8"?>
<svg width="26px" height="113px" viewBox="0 0 26 113" version="1.1" xmlns="http://www.w3.org/2000/svg" xmlns:xlink="http://www.w3.org/1999/xlink">
    <!-- Generator: Sketch 41 (35326) - http://www.bohemiancoding.com/sketch -->
    <title>HSE ART AND DES IGN</title>
    <desc>Created with Sketch.</desc>
    <defs></defs>
    <g id="1440_new" stroke="none" stroke-width="1" fill="none" fill-rule="evenodd">
        <g id="form-active" transform="translate(-703.000000, -692.000000)" fill="#FFFFFF">
            <path d="M709.574541,697.872275 L704.893349,697.872275 L704.893349,702.693248 L703.655963,702.693248 L703.655963,692.180223 L704.893349,692.180223 L704.893349,696.760898 L709.574541,696.760898 L709.574541,692.180223 L710.811927,692.180223 L710.811927,702.693248 L709.574541,702.693248 L709.574541,697.872275 Z M713.942661,701.206406 C714.240827,701.366605 714.57626,701.499268 714.948968,701.604399 C715.321676,701.70953 715.696864,701.762095 716.074541,701.762095 C716.402525,701.762095 716.710625,701.729555 716.998853,701.664474 C717.287081,701.599393 717.538034,701.494264 717.75172,701.349083 C717.965406,701.203902 718.134365,701.021178 718.258601,700.800904 C718.382837,700.58063 718.444954,700.32031 718.444954,700.019936 C718.444954,699.609426 718.308296,699.274013 718.034977,699.01369 C717.761658,698.753366 717.421256,698.523083 717.013761,698.322834 C716.606267,698.122585 716.163993,697.927345 715.686927,697.737108 C715.20986,697.546871 714.767586,697.321594 714.360092,697.061271 C713.952597,696.800947 713.612196,696.483056 713.338876,696.107589 C713.065557,695.732122 712.928899,695.254034 712.928899,694.673312 C712.928899,694.262801 713.010894,693.892346 713.174885,693.561935 C713.338877,693.231524 713.569953,692.95118 713.868119,692.720893 C714.166286,692.490607 714.526565,692.312888 714.948968,692.187733 C715.371371,692.062577 715.840976,692 716.357798,692 C716.954131,692 717.495793,692.042552 717.982798,692.127658 C718.469804,692.212764 718.857414,692.325402 719.145642,692.465577 L719.175459,692.450558 L719.175459,692.480595 L719.190367,692.480595 L719.175459,692.525651 L719.175459,694.928628 L718.072248,694.928628 L718.072248,693.321637 C717.823776,693.261563 717.55046,693.211501 717.252294,693.171451 C716.954127,693.131402 716.636087,693.111377 716.298165,693.111377 C715.970182,693.111377 715.674504,693.151426 715.411124,693.231526 C715.147743,693.311625 714.924122,693.419258 714.740252,693.554426 C714.556383,693.689594 714.414756,693.847288 714.315367,694.027512 C714.215978,694.207736 714.166284,694.39797 714.166284,694.598219 C714.166284,694.988705 714.302942,695.314105 714.576261,695.574428 C714.849581,695.834752 715.189983,696.067538 715.597477,696.272794 C716.004971,696.478049 716.447245,696.680798 716.924312,696.881047 C717.401379,697.081296 717.843652,697.314082 718.251147,697.579413 C718.658641,697.844743 718.999043,698.162633 719.272362,698.533094 C719.545682,698.903555 719.682339,699.364121 719.682339,699.914806 C719.682339,700.365366 719.600345,700.770865 719.436353,701.131313 C719.272362,701.491762 719.038801,701.802143 718.735665,702.062467 C718.432529,702.322791 718.059826,702.523037 717.617546,702.663211 C717.175265,702.803385 716.675844,702.873472 716.119266,702.873472 C715.741588,702.873472 715.383794,702.843435 715.045872,702.78336 C714.707949,702.723285 714.397364,702.648193 714.114106,702.558081 C713.830847,702.467969 713.577409,702.372852 713.353784,702.272727 C713.130159,702.172603 712.953747,702.087498 712.824541,702.017411 L712.83945,701.972355 L712.83945,699.539341 L713.942661,699.539341 L713.942661,701.206406 Z M722.24656,692.180223 L728.373853,692.180223 L728.373853,693.2916 L723.483945,693.2916 L723.483945,696.730861 L728.001147,696.730861 L728.001147,697.842238 L723.483945,697.842238 L723.483945,701.581871 L728.448394,701.581871 L728.448394,702.693248 L722.24656,702.693248 L722.24656,692.180223 Z M709.186927,716.800727 L705.176606,716.800727 L704.222477,719.714336 L703,719.714336 L706.488532,709.201311 L707.949541,709.201311 L711.46789,719.714336 L710.170872,719.714336 L709.186927,716.800727 Z M705.56422,715.719387 L708.844037,715.719387 L707.308486,710.778265 L707.129587,710.778265 L705.56422,715.719387 Z M713.197248,709.306442 C713.574925,709.236354 714.009745,709.181287 714.50172,709.141237 C714.993695,709.101187 715.443423,709.081163 715.850917,709.081163 C716.308106,709.081163 716.742926,709.131224 717.15539,709.231349 C717.567854,709.331473 717.930618,709.496676 718.243693,709.726963 C718.556768,709.957249 718.807721,710.257618 718.99656,710.628079 C719.185398,710.99854 719.279817,711.449094 719.279817,711.979754 C719.279817,712.390264 719.21273,712.75321 719.078555,713.068603 C718.94438,713.383995 718.780391,713.654327 718.586583,713.879607 C718.392774,714.104888 718.191515,714.287612 717.982798,714.427787 C717.774082,714.567961 717.595184,714.668084 717.446101,714.728159 L720.204128,719.714336 L718.758028,719.714336 L716.298165,715.088605 L714.434633,715.088605 L714.434633,719.714336 L713.197248,719.714336 L713.197248,709.306442 Z M715.880734,710.162502 L715.478211,710.162502 C715.339067,710.162502 715.204894,710.167508 715.075688,710.177521 C714.946483,710.187533 714.824733,710.197546 714.710436,710.207558 C714.596139,710.21757 714.504205,710.232589 714.434633,710.252614 L714.434633,714.127414 L715.597477,714.127414 C716.28326,714.127414 716.849768,713.957205 717.297018,713.616782 C717.744268,713.276358 717.96789,712.745706 717.96789,712.024809 C717.96789,711.484137 717.784023,711.038589 717.416284,710.688153 C717.048546,710.337718 716.536701,710.162502 715.880734,710.162502 Z M721.247706,709.201311 L729,709.201311 L729,711.949716 L727.896789,711.949716 L727.896789,710.312688 L725.735092,710.312688 L725.735092,718.602959 L727.375,718.602959 L727.375,719.714336 L722.857798,719.714336 L722.857798,718.602959 L724.497706,718.602959 L724.497706,710.312688 L722.350917,710.312688 L722.350917,711.949716 L721.247706,711.949716 L721.247706,709.201311 Z M709.186927,733.821815 L705.176606,733.821815 L704.222477,736.735424 L703,736.735424 L706.488532,726.222399 L707.949541,726.222399 L711.46789,736.735424 L710.170872,736.735424 L709.186927,733.821815 Z M705.56422,732.740475 L708.844037,732.740475 L707.308486,727.799353 L707.129587,727.799353 L705.56422,732.740475 Z M714.62844,730.157274 L713.823394,728.640395 L713.763761,728.640395 L713.912844,730.157274 L713.912844,736.735424 L712.75,736.735424 L712.75,726.222399 L713.555046,726.222399 L717.759174,732.770512 L718.534404,734.212298 L718.608945,734.212298 L718.444954,732.770512 L718.444954,726.222399 L719.607798,726.222399 L719.607798,736.735424 L718.802752,736.735424 L714.62844,730.157274 Z M721.844037,726.222399 C722.221714,726.172337 722.616779,726.139797 723.029243,726.124778 C723.441707,726.10976 723.792047,726.102251 724.080275,726.102251 C724.984714,726.102251 725.742543,726.232411 726.353784,726.492734 C726.965026,726.753058 727.456994,727.116004 727.829702,727.581583 C728.20241,728.047163 728.470756,728.605349 728.634748,729.256158 C728.798739,729.906968 728.880734,730.622847 728.880734,731.403819 C728.880734,732.114703 728.806193,732.798043 728.65711,733.453859 C728.508027,734.109675 728.24962,734.690388 727.881881,735.196017 C727.514142,735.701646 727.01969,736.107144 726.398509,736.412524 C725.777329,736.717904 724.999622,736.870592 724.065367,736.870592 C723.936161,736.870592 723.767203,736.868089 723.558486,736.863083 C723.34977,736.858076 723.136087,736.848064 722.917431,736.833045 C722.698776,736.818027 722.490062,736.805511 722.291284,736.795499 C722.092507,736.785486 721.943426,736.770468 721.844037,736.750443 L721.844037,726.222399 Z M724.139908,727.213628 C724.000764,727.213628 723.824351,727.218634 723.610665,727.228646 C723.396979,727.238659 723.220566,727.258683 723.081422,727.288721 L723.081422,735.699141 C723.131116,735.709153 723.203172,735.716662 723.297592,735.721668 C723.392011,735.726675 723.488914,735.731681 723.588303,735.736687 C723.687692,735.741693 723.784594,735.746699 723.879014,735.751706 C723.973433,735.756712 724.050458,735.759215 724.110092,735.759215 C724.835631,735.759215 725.424501,735.639067 725.87672,735.398768 C726.32894,735.158469 726.67928,734.835573 726.927752,734.430068 C727.176224,734.024564 727.345183,733.558992 727.434633,733.033338 C727.524083,732.507684 727.568807,731.964516 727.568807,731.403819 C727.568807,730.913209 727.529052,730.420103 727.449541,729.924486 C727.37003,729.42887 727.208526,728.980819 726.965023,728.580321 C726.72152,728.179823 726.373664,727.85192 725.921445,727.596602 C725.469226,727.341284 724.875386,727.213628 724.139908,727.213628 Z M703.954128,743.243488 C704.331806,743.193425 704.726871,743.160885 705.139335,743.145867 C705.551799,743.130848 705.902139,743.123339 706.190367,743.123339 C707.094806,743.123339 707.852635,743.253499 708.463876,743.513822 C709.075118,743.774146 709.567085,744.137092 709.939794,744.602671 C710.312502,745.068251 710.580848,745.626437 710.744839,746.277246 C710.908831,746.928056 710.990826,747.643935 710.990826,748.424907 C710.990826,749.135791 710.916285,749.819131 710.767202,750.474947 C710.618119,751.130763 710.359711,751.711476 709.991972,752.217105 C709.624234,752.722734 709.129781,753.128233 708.508601,753.433612 C707.88742,753.738992 707.109714,753.89168 706.175459,753.89168 C706.046253,753.89168 705.877295,753.889177 705.668578,753.884171 C705.459861,753.879164 705.246178,753.869152 705.027523,753.854133 C704.808867,753.839115 704.600154,753.826599 704.401376,753.816587 C704.202598,753.806574 704.053517,753.791556 703.954128,753.771531 L703.954128,743.243488 Z M706.25,744.234716 C706.110856,744.234716 705.934443,744.239722 705.720757,744.249734 C705.507071,744.259747 705.330658,744.279771 705.191514,744.309809 L705.191514,752.720229 C705.241208,752.730241 705.313264,752.73775 705.407683,752.742757 C705.502103,752.747763 705.599006,752.752769 705.698394,752.757775 C705.797783,752.762781 705.894686,752.767787 705.989106,752.772794 C706.083525,752.7778 706.16055,752.780303 706.220183,752.780303 C706.945722,752.780303 707.534593,752.660155 707.986812,752.419856 C708.439031,752.179558 708.789372,751.856661 709.037844,751.451156 C709.286316,751.045652 709.455275,750.58008 709.544725,750.054426 C709.634175,749.528772 709.678899,748.985604 709.678899,748.424907 C709.678899,747.934297 709.639144,747.441191 709.559633,746.945574 C709.480122,746.449958 709.318617,746.001907 709.075115,745.601409 C708.831612,745.200911 708.483756,744.873008 708.031537,744.61769 C707.579317,744.362372 706.985478,744.234716 706.25,744.234716 Z M713.301606,743.243488 L719.428899,743.243488 L719.428899,744.354864 L714.538991,744.354864 L714.538991,747.794125 L719.056193,747.794125 L719.056193,748.905502 L714.538991,748.905502 L714.538991,752.645136 L719.50344,752.645136 L719.50344,753.756512 L713.301606,753.756512 L713.301606,743.243488 Z M722.887615,752.26967 C723.185781,752.42987 723.521214,752.562533 723.893922,752.667663 C724.26663,752.772794 724.641818,752.825359 725.019495,752.825359 C725.347479,752.825359 725.65558,752.792819 725.943807,752.727738 C726.232035,752.662657 726.482988,752.557528 726.696674,752.412347 C726.91036,752.267167 727.079319,752.084442 727.203555,751.864168 C727.327791,751.643894 727.389908,751.383574 727.389908,751.0832 C727.389908,750.67269 727.253251,750.337278 726.979931,750.076954 C726.706612,749.81663 726.36621,749.586347 725.958716,749.386098 C725.551221,749.185849 725.108947,748.990609 724.631881,748.800372 C724.154814,748.610136 723.71254,748.384859 723.305046,748.124535 C722.897551,747.864211 722.55715,747.54632 722.28383,747.170853 C722.010511,746.795386 721.873853,746.317299 721.873853,745.736576 C721.873853,745.326066 721.955848,744.95561 722.119839,744.625199 C722.283831,744.294788 722.514907,744.014444 722.813073,743.784157 C723.11124,743.553871 723.471519,743.376152 723.893922,743.250997 C724.316325,743.125841 724.78593,743.063264 725.302752,743.063264 C725.899086,743.063264 726.440747,743.105817 726.927752,743.190922 C727.414758,743.276028 727.802369,743.388667 728.090596,743.528841 L728.120413,743.513822 L728.120413,743.54386 L728.135321,743.54386 L728.120413,743.588915 L728.120413,745.991893 L727.017202,745.991893 L727.017202,744.384902 C726.76873,744.324827 726.495414,744.274765 726.197248,744.234716 C725.899081,744.194666 725.581041,744.174641 725.243119,744.174641 C724.915136,744.174641 724.619459,744.21469 724.356078,744.29479 C724.092697,744.37489 723.869076,744.482522 723.685206,744.61769 C723.501337,744.752858 723.35971,744.910552 723.260321,745.090776 C723.160932,745.271 723.111239,745.461234 723.111239,745.661483 C723.111239,746.051969 723.247896,746.377369 723.521216,746.637693 C723.794535,746.898017 724.134937,747.130803 724.542431,747.336058 C724.949926,747.541313 725.392199,747.744062 725.869266,747.944312 C726.346333,748.144561 726.788607,748.377347 727.196101,748.642677 C727.603595,748.908007 727.943997,749.225897 728.217317,749.596358 C728.490636,749.966819 728.627294,750.427385 728.627294,750.97807 C728.627294,751.428631 728.545299,751.834129 728.381307,752.194577 C728.217316,752.555026 727.983755,752.865407 727.680619,753.125731 C727.377483,753.386055 727.00478,753.586301 726.5625,753.726475 C726.12022,753.86665 725.620798,753.936736 725.06422,753.936736 C724.686542,753.936736 724.328748,753.906699 723.990826,753.846624 C723.652904,753.786549 723.342318,753.711457 723.05906,753.621345 C722.775801,753.531233 722.522364,753.436116 722.298739,753.335991 C722.075114,753.235867 721.898701,753.150762 721.769495,753.080675 L721.784404,753.035619 L721.784404,750.602605 L722.887615,750.602605 L722.887615,752.26967 Z M703.655963,760.264576 L710.811927,760.264576 L710.811927,761.375953 L707.845183,761.375953 L707.845183,769.666224 L710.811927,769.666224 L710.811927,770.777601 L703.655963,770.777601 L703.655963,769.666224 L706.607798,769.666224 L706.607798,761.375953 L703.655963,761.375953 L703.655963,760.264576 Z M718.22133,761.300859 C717.883408,761.230772 717.47095,761.195729 716.983945,761.195729 C716.566512,761.195729 716.166477,761.268318 715.78383,761.413499 C715.401183,761.55868 715.063266,761.801478 714.770069,762.141901 C714.476872,762.482325 714.243311,762.927872 714.069381,763.478558 C713.89545,764.029243 713.808486,764.710079 713.808486,765.521088 C713.808486,767.002931 714.079317,768.094273 714.620986,768.795144 C715.162656,769.496016 715.945331,769.846447 716.969037,769.846447 C717.605126,769.846447 718.146787,769.721293 718.594037,769.470982 L718.594037,766.542353 L716.447248,766.542353 L716.447248,765.536107 L719.652523,765.536107 L719.652523,770.161838 C719.493501,770.281987 719.30218,770.392122 719.078555,770.492247 C718.85493,770.592372 718.6164,770.677476 718.362959,770.747563 C718.109517,770.817651 717.846141,770.870215 717.572821,770.905259 C717.299502,770.940302 717.03364,770.957824 716.775229,770.957824 C716.109324,770.957824 715.513,770.850192 714.986239,770.634924 C714.459477,770.419656 714.012234,770.08925 713.644495,769.643696 C713.276757,769.198141 712.993503,768.632446 712.794725,767.946593 C712.595947,767.26074 712.49656,766.452246 712.49656,765.521088 C712.49656,764.54988 712.620794,763.718859 712.869266,763.027999 C713.117738,762.33714 713.445717,761.773948 713.853211,761.338406 C714.260705,760.902864 714.727826,760.584974 715.254587,760.384724 C715.781348,760.184475 716.323009,760.084352 716.879587,760.084352 C717.47592,760.084352 717.967888,760.116892 718.355505,760.181973 C718.743121,760.247054 719.0711,760.334662 719.33945,760.444799 L719.324541,760.504873 L719.324541,763.012981 L718.22133,763.012981 L718.22133,761.300859 Z M723.573394,764.199451 L722.768349,762.682571 L722.708716,762.682571 L722.857798,764.199451 L722.857798,770.777601 L721.694954,770.777601 L721.694954,760.264576 L722.5,760.264576 L726.704128,766.812688 L727.479358,768.254475 L727.553899,768.254475 L727.389908,766.812688 L727.389908,760.264576 L728.552752,760.264576 L728.552752,770.777601 L727.747706,770.777601 L723.573394,764.199451 Z M704.997706,786.311847 C705.295873,786.472046 705.631305,786.604709 706.004014,786.70984 C706.376722,786.81497 706.751909,786.867535 707.129587,786.867535 C707.45757,786.867535 707.765671,786.834995 708.053899,786.769914 C708.342127,786.704833 708.59308,786.599704 708.806766,786.454523 C709.020452,786.309343 709.189411,786.126618 709.313647,785.906344 C709.437883,785.68607 709.5,785.42575 709.5,785.125377 C709.5,784.714866 709.363342,784.379454 709.090023,784.11913 C708.816704,783.858806 708.476302,783.628523 708.068807,783.428274 C707.661313,783.228025 707.219039,783.032785 706.741972,782.842548 C706.264906,782.652312 705.822632,782.427035 705.415138,782.166711 C705.007643,781.906387 704.667241,781.588496 704.393922,781.213029 C704.120603,780.837562 703.983945,780.359475 703.983945,779.778752 C703.983945,779.368242 704.06594,778.997787 704.229931,778.667376 C704.393923,778.336965 704.624999,778.05662 704.923165,777.826334 C705.221332,777.596047 705.581611,777.418329 706.004014,777.293173 C706.426416,777.168017 706.896022,777.10544 707.412844,777.10544 C708.009177,777.10544 708.550839,777.147993 709.037844,777.233099 C709.52485,777.318204 709.91246,777.430843 710.200688,777.571017 L710.230505,777.555999 L710.230505,777.586036 L710.245413,777.586036 L710.230505,777.631092 L710.230505,780.034069 L709.127294,780.034069 L709.127294,778.427078 C708.878821,778.367003 708.605506,778.316942 708.307339,778.276892 C708.009173,778.236842 707.691133,778.216817 707.353211,778.216817 C707.025228,778.216817 706.72955,778.256867 706.46617,778.336966 C706.202789,778.417066 705.979168,778.524698 705.795298,778.659866 C705.611429,778.795034 705.469802,778.952728 705.370413,779.132952 C705.271024,779.313177 705.22133,779.50341 705.22133,779.703659 C705.22133,780.094145 705.357988,780.419545 705.631307,780.679869 C705.904627,780.940193 706.245029,781.172979 706.652523,781.378234 C707.060017,781.583489 707.502291,781.786239 707.979358,781.986488 C708.456424,782.186737 708.898698,782.419523 709.306193,782.684853 C709.713687,782.950183 710.054089,783.268074 710.327408,783.638534 C710.600728,784.008995 710.737385,784.469561 710.737385,785.020246 C710.737385,785.470807 710.655391,785.876305 710.491399,786.236753 C710.327407,786.597202 710.093847,786.907583 709.790711,787.167907 C709.487575,787.428231 709.114872,787.628477 708.672592,787.768651 C708.230311,787.908826 707.73089,787.978912 707.174312,787.978912 C706.796634,787.978912 706.43884,787.948875 706.100917,787.8888 C705.762995,787.828726 705.45241,787.753633 705.169151,787.663521 C704.885893,787.573409 704.632455,787.478292 704.40883,787.378168 C704.185205,787.278043 704.008793,787.192939 703.879587,787.122851 L703.894495,787.077795 L703.894495,784.644781 L704.997706,784.644781 L704.997706,786.311847 Z M718.534404,778.427078 C718.365443,778.356991 718.179091,778.304426 717.975344,778.269382 C717.771597,778.234339 717.525613,778.216817 717.237385,778.216817 C716.829891,778.216817 716.429857,778.29191 716.037271,778.442096 C715.644685,778.592283 715.296829,778.837585 714.993693,779.178008 C714.690557,779.518432 714.447057,779.963979 714.263188,780.514664 C714.079319,781.065349 713.987385,781.74118 713.987385,782.542176 C713.987385,783.263073 714.06938,783.893848 714.233372,784.434521 C714.397363,784.975193 714.625954,785.425747 714.919151,785.786195 C715.212349,786.146644 715.565174,786.416976 715.977638,786.5972 C716.390101,786.777424 716.849768,786.867535 717.356651,786.867535 C717.615062,786.867535 717.856077,786.845007 718.079702,786.799951 C718.303327,786.754895 718.509556,786.692318 718.698394,786.612219 L718.698394,785.110358 L719.801606,785.110358 L719.801606,787.13787 L719.816514,787.167907 C719.518347,787.398194 719.140675,787.59093 718.683486,787.746124 C718.226297,787.901317 717.669728,787.978912 717.013761,787.978912 C716.387612,787.978912 715.80868,787.87128 715.27695,787.656012 C714.745219,787.440744 714.285552,787.112841 713.897936,786.672293 C713.510319,786.231745 713.209672,785.668553 712.995986,784.9827 C712.7823,784.296847 712.675459,783.483347 712.675459,782.542176 C712.675459,781.560956 712.794724,780.727431 713.033257,780.041578 C713.27179,779.355725 713.594799,778.795036 714.002294,778.359494 C714.409788,777.923952 714.884363,777.606062 715.426032,777.405813 C715.967701,777.205563 716.546633,777.10544 717.162844,777.10544 C717.500766,777.10544 717.793959,777.117956 718.042431,777.142987 C718.290903,777.168018 718.509556,777.203061 718.698394,777.248117 C718.887233,777.293173 719.053707,777.350744 719.197821,777.420831 C719.341935,777.490918 719.483562,777.571017 719.622706,777.661129 L719.637615,777.661129 L719.637615,780.034069 L718.534404,780.034069 L718.534404,778.427078 Z M727.46445,782.977716 L722.783257,782.977716 L722.783257,787.798689 L721.545872,787.798689 L721.545872,777.285664 L722.783257,777.285664 L722.783257,781.866339 L727.46445,781.866339 L727.46445,777.285664 L728.701835,777.285664 L728.701835,787.798689 L727.46445,787.798689 L727.46445,782.977716 Z M703.477064,799.563264 C703.477064,797.821097 703.78268,796.479448 704.393922,795.538278 C705.005164,794.597107 705.946859,794.126528 707.219037,794.126528 C707.914759,794.126528 708.503629,794.256688 708.985665,794.517012 C709.467701,794.777336 709.857797,795.145288 710.155963,795.62088 C710.45413,796.096471 710.667813,796.667173 710.797018,797.333001 C710.926224,797.998829 710.990826,798.742243 710.990826,799.563264 C710.990826,801.305431 710.685209,802.64708 710.073968,803.588251 C709.462726,804.529422 708.511092,805 707.219037,805 C706.533253,805 705.951837,804.86984 705.474771,804.609516 C704.997704,804.349192 704.610093,803.98124 704.311927,803.505649 C704.01376,803.030057 703.800077,802.459356 703.670872,801.793527 C703.541666,801.127699 703.477064,800.384286 703.477064,799.563264 Z M704.788991,799.563264 C704.788991,800.143987 704.826261,800.694663 704.900803,801.215311 C704.975344,801.735959 705.107033,802.194022 705.295872,802.589514 C705.48471,802.985006 705.733179,803.300393 706.041284,803.535686 C706.34939,803.770978 706.74197,803.888623 707.219037,803.888623 C708.073781,803.888623 708.697437,803.538192 709.090023,802.837321 C709.482609,802.136449 709.678899,801.045108 709.678899,799.563264 C709.678899,798.992554 709.641629,798.444381 709.567087,797.918727 C709.492545,797.393073 709.360857,796.932507 709.172018,796.537015 C708.983179,796.141523 708.729742,795.826135 708.411697,795.590843 C708.093653,795.35555 707.696103,795.237905 707.219037,795.237905 C706.374231,795.237905 705.758029,795.590839 705.370413,796.296717 C704.982796,797.002595 704.788991,798.091433 704.788991,799.563264 Z M712.422018,799.563264 C712.422018,797.821097 712.727635,796.479448 713.338876,795.538278 C713.950118,794.597107 714.891813,794.126528 716.163991,794.126528 C716.859713,794.126528 717.448583,794.256688 717.930619,794.517012 C718.412655,794.777336 718.802751,795.145288 719.100917,795.62088 C719.399084,796.096471 719.612767,796.667173 719.741972,797.333001 C719.871178,797.998829 719.93578,798.742243 719.93578,799.563264 C719.93578,801.305431 719.630164,802.64708 719.018922,803.588251 C718.40768,804.529422 717.456046,805 716.163991,805 C715.478208,805 714.896791,804.86984 714.419725,804.609516 C713.942658,804.349192 713.555047,803.98124 713.256881,803.505649 C712.958714,803.030057 712.745031,802.459356 712.615826,801.793527 C712.48662,801.127699 712.422018,800.384286 712.422018,799.563264 Z M713.733945,799.563264 C713.733945,800.143987 713.771215,800.694663 713.845757,801.215311 C713.920299,801.735959 714.051987,802.194022 714.240826,802.589514 C714.429665,802.985006 714.678133,803.300393 714.986239,803.535686 C715.294344,803.770978 715.686924,803.888623 716.163991,803.888623 C717.018735,803.888623 717.642391,803.538192 718.034977,802.837321 C718.427563,802.136449 718.623853,801.045108 718.623853,799.563264 C718.623853,798.992554 718.586583,798.444381 718.512041,797.918727 C718.4375,797.393073 718.305811,796.932507 718.116972,796.537015 C717.928134,796.141523 717.674696,795.826135 717.356651,795.590843 C717.038607,795.35555 716.641057,795.237905 716.163991,795.237905 C715.319185,795.237905 714.702984,795.590839 714.315367,796.296717 C713.92775,797.002595 713.733945,798.091433 713.733945,799.563264 Z M721.993119,794.306752 L723.230505,794.306752 L723.230505,803.7084 L727.449541,803.7084 L727.449541,801.095162 L728.552752,801.095162 L728.552752,804.819777 L721.993119,804.819777 L721.993119,794.306752 Z" id="HSE-ART-AND-DES-IGN"></path>
        </g>
    </g>
</svg>